<svg width="32" height="32" viewBox="0 0 32 32" fill="none" xmlns="http://www.w3.org/2000/svg">
<path fill-rule="evenodd" clip-rule="evenodd" d="M4.8 3C4.32261 3 3.86477 3.18964 3.52721 3.52721C3.18964 3.86477 3 4.32261 3 4.8V27.2C3 28.1947 3.80533 29 4.8 29H27.2C27.4364 29 27.6704 28.9534 27.8888 28.863C28.1072 28.7725 28.3056 28.6399 28.4728 28.4728C28.6399 28.3056 28.7725 28.1072 28.863 27.8888C28.9534 27.6704 29 27.4364 29 27.2V4.8C29 4.56362 28.9534 4.32956 28.863 4.11117C28.7725 3.89278 28.6399 3.69435 28.4728 3.52721C28.3056 3.36006 28.1072 3.22748 27.8888 3.13702C27.6704 3.04656 27.4364 3 27.2 3H4.8ZM17 7.33333C17 7.06812 16.8946 6.81376 16.7071 6.62623C16.5196 6.43869 16.2652 6.33333 16 6.33333C15.7348 6.33333 15.4804 6.43869 15.2929 6.62623C15.1054 6.81376 15 7.06812 15 7.33333V8.804C14.3133 8.90667 13.64 9.144 13.0707 9.576C12.1733 10.256 11.6667 11.3107 11.6667 12.6667C11.6667 13.328 11.8187 13.9129 12.1227 14.4213C12.4227 14.9227 12.8347 15.292 13.276 15.5733C14.092 16.0933 15.1333 16.376 15.9947 16.6107L16.0707 16.632C17.0293 16.8933 17.7827 17.108 18.3173 17.448C18.564 17.6053 18.724 17.7667 18.8267 17.9373C18.924 18.1013 19 18.3267 19 18.6667C19 19.48 18.6733 19.9893 18.1947 20.324C17.6747 20.688 16.908 20.8867 16.0347 20.856C14.7013 20.8067 13.428 20.2373 12.8 19.4C12.7212 19.2949 12.6225 19.2064 12.5095 19.1395C12.3965 19.0726 12.2714 19.0286 12.1414 19.01C12.0114 18.9915 11.879 18.9987 11.7518 19.0313C11.6246 19.0639 11.5051 19.1212 11.4 19.2C11.2949 19.2788 11.2064 19.3775 11.1395 19.4905C11.0726 19.6035 11.0286 19.7286 11.01 19.8586C10.9915 19.9886 10.9987 20.121 11.0313 20.2482C11.0639 20.3754 11.1212 20.4949 11.2 20.6C12.0933 21.7907 13.5427 22.5 15 22.7533V24.6667C15 24.9319 15.1054 25.1862 15.2929 25.3738C15.4804 25.5613 15.7348 25.6667 16 25.6667C16.2652 25.6667 16.5196 25.5613 16.7071 25.3738C16.8946 25.1862 17 24.9319 17 24.6667V22.812C17.8373 22.712 18.656 22.444 19.3413 21.9627C20.3507 21.256 21 20.136 21 18.6667C21 18.0053 20.848 17.4204 20.544 16.912C20.2566 16.4418 19.8612 16.0469 19.3907 15.76C18.5747 15.24 17.5333 14.9573 16.672 14.7227L16.596 14.7013C15.6373 14.44 14.884 14.2253 14.3493 13.8853C14.1422 13.7661 13.9674 13.5982 13.84 13.396C13.7157 13.1737 13.6557 12.9211 13.6667 12.6667C13.6667 11.848 13.9467 11.42 14.2773 11.1707C14.6507 10.888 15.232 10.724 15.9733 10.744C17.2387 10.7787 18.588 11.336 19.2933 12.04C19.3849 12.1382 19.4953 12.2171 19.6179 12.2717C19.7406 12.3264 19.873 12.3558 20.0073 12.3581C20.1416 12.3605 20.2749 12.3358 20.3995 12.2855C20.524 12.2352 20.6371 12.1603 20.732 12.0654C20.827 11.9704 20.9019 11.8573 20.9522 11.7328C21.0025 11.6083 21.0272 11.4749 21.0248 11.3406C21.0224 11.2064 20.993 11.0739 20.9384 10.9513C20.8837 10.8286 20.8049 10.7182 20.7067 10.6267C19.7973 9.716 18.3987 9.076 17 8.84V7.33333Z" fill="#84DBAB"/>
</svg>
